<?xml version="1.0" encoding="UTF-8"?>
<svg width="56px" height="90px" viewBox="0 0 56 90" version="1.1" xmlns="http://www.w3.org/2000/svg" xmlns:xlink="http://www.w3.org/1999/xlink">
    <!-- Generator: Sketch Beta 50 (54675) - http://www.bohemiancoding.com/sketch -->
    <title>contact_phone_icon</title>
    <desc>Created with Sketch Beta.</desc>
    <defs></defs>
    <g id="Home" stroke="none" stroke-width="1" fill="none" fill-rule="evenodd">
        <g id="contact_module" transform="translate(-191.000000, -675.000000)" fill="#000000">
            <g id="Group" transform="translate(191.000000, 120.000000)">
                <path d="M6,555 C2.7109,555 0,557.7109 0,561 L0,639 C0,642.2891 2.7109,645 6,645 L50,645 C53.2891,645 56,642.2891 56,639 L56,561 C56,557.7109 53.2891,555 50,555 L6,555 Z M6,559 L50,559 C51.1445,559 52,559.85547 52,561 L52,563 L4,563 L4,561 C4,559.8555 4.85547,559 6,559 Z M4,567 L52,567 L52,629 L4,629 L4,567 Z M17.781,578.062 C17.2185,578.04638 16.6365,578.12841 16.0622,578.28075 C14.7692,578.66747 13.6442,579.39405 12.7497,580.28075 C8.8864,584.14405 6.6169,587.91355 7.1559,592.18675 C7.6949,596.45995 10.7067,600.51875 15.9997,605.81175 L21.1872,610.99925 C26.4802,616.29225 30.5388,619.30395 34.8122,619.84305 C39.0856,620.38215 42.8239,618.07745 46.6872,614.21805 C47.7224,613.21805 48.3474,611.99925 48.6872,610.90555 C49.07392,609.61255 49.11689,607.83525 47.84345,606.56175 C46.90986,605.62816 45.52705,604.39765 44.12465,603.28055 C42.72225,602.16345 41.43715,601.19855 40.28085,600.62435 C38.59725,599.78841 36.86675,600.50716 35.81205,601.2181 C34.33545,602.2689 33.11285,603.64 31.87455,604.9369 C31.12455,605.26893 31.63627,605.26112 30.87455,604.9369 C30.28861,604.56581 29.36285,603.8002 28.12455,602.5619 L24.43705,598.8431 C23.19875,597.6048 22.40185,596.7103 22.03085,596.1243 C21.5621,595.43289 21.88632,595.30008 22.03085,595.1243 C23.34725,593.7962 24.81205,592.5735 25.78085,591.1555 C26.49179,590.1008 27.17925,588.4016 26.34335,586.718 C25.76913,585.5618 24.80425,584.2766 23.68715,582.8742 C22.57005,581.4718 21.37075,580.089 20.43715,579.1554 C19.62465,578.39368 18.72235,578.089 17.78095,578.0616 L17.781,578.062 Z M17.5935,581.9682 C18.33178,582.70648 19.5193,584.0659 20.5623,585.3744 C21.6053,586.6829 22.574,588.0814 22.7811,588.4994 C22.50766,588.9369 21.5389,590.0189 20.9061,590.6556 C20.31626,591.24544 19.703,591.7611 19.1249,592.3744 C18.5468,592.9877 17.9022,593.8197 17.7499,594.9682 C17.5976,596.1167 18.00381,597.226 18.65615,598.2494 C20.56635,600.7455 25.03895,605.5111 28.71815,608.3114 C29.74155,608.96374 30.88225,609.37 32.03065,609.21765 C33.17905,609.0653 34.01115,608.42077 34.62445,607.84265 C35.23775,607.26453 35.72215,606.68245 36.31195,606.09265 C36.86664,605.46765 38.08535,604.50675 38.49945,604.21765 C38.91742,604.42468 40.31585,605.39345 41.62445,606.43645 C42.93305,607.47945 44.26115,608.63565 44.99945,609.37395 C44.90179,609.74504 44.31195,610.78805 43.87445,611.40515 C40.34325,614.93635 37.94475,616.20595 35.31195,615.87395 C32.67915,615.54195 29.07755,613.23335 23.99995,608.15515 L18.81245,602.99895 C13.73435,597.92085 11.45695,594.31925 11.12495,591.68695 C10.79295,589.05465 12.06245,586.65575 15.59375,583.12445 C16.02734,582.63617 17.16015,582.02675 17.59375,581.96825 L17.5935,581.9682 Z M3.9995,632.9992 L51.9995,632.9992 L51.9995,638.9992 C51.9995,640.143698 51.14403,640.999198 49.9995,640.999198 L5.9995,640.999198 C4.855,640.999198 4.0112,640.139818 3.9995,638.9992 L3.9995,632.9992 Z M27.9995,634.9992 C26.894,634.9992 25.9995,635.89373 25.9995,636.9992 C25.9995,638.10467 26.89403,638.9992 27.9995,638.9992 C29.10497,638.9992 29.9995,638.10467 29.9995,636.9992 C29.9995,635.89373 29.10497,634.9992 27.9995,634.9992 Z" id="contact_phone_icon"></path>
            </g>
        </g>
    </g>
</svg>