<?xml version="1.0" encoding="UTF-8"?>
<svg width="92px" height="93px" viewBox="0 0 92 93" version="1.1" xmlns="http://www.w3.org/2000/svg" xmlns:xlink="http://www.w3.org/1999/xlink">
    <!-- Generator: Sketch Beta 50 (54675) - http://www.bohemiancoding.com/sketch -->
    <title>contact_mail_icon</title>
    <desc>Created with Sketch Beta.</desc>
    <defs></defs>
    <g id="Home" stroke="none" stroke-width="1" fill="none" fill-rule="evenodd">
        <g id="contact_module" transform="translate(-1157.000000, -673.000000)" fill="#000000">
            <g id="Group" transform="translate(191.000000, 120.000000)">
                <path d="M974.820917,646 L1049.17972,646 C1054.05471,645.996114 1058,642.063668 1058,637.218011 L1058,590.245641 C1058,589.511217 1057.67188,588.815649 1057.10938,588.345418 L1044.80041,577.997749 L1044.80041,559.963438 C1044.80041,558.11763 1044.06214,556.345733 1042.74962,555.040088 C1041.4371,553.734444 1039.65583,553 1037.80043,553 L986.691566,553 C982.824376,553 979.691584,556.116437 979.691584,559.963438 L979.691584,577.620728 L966.890618,588.345418 C966.328119,588.815609 966,589.511197 966,590.245641 L966,637.218011 C966,642.063667 969.94529,645.996119 974.820277,646 L974.820917,646 Z M1049.17272,641.026116 L974.820917,641.026116 C972.707623,641.02223 971.000627,639.316293 971.000627,637.218011 L971.000627,594.990727 L999.500553,615.045429 L979.270605,630.444575 C978.165108,631.26838 977.942509,632.826568 978.770607,633.926294 C979.598725,635.022141 981.1651,635.247458 982.270598,634.423683 L1003.78254,618.04866 L1010.78252,623.022545 C1011.6458,623.632622 1012.80592,623.632622 1013.67312,623.022545 L1020.6731,618.04866 L1042.19304,634.392845 C1043.29464,635.216649 1044.86493,634.995152 1045.69303,633.895456 C1046.52115,632.79573 1046.29459,631.237512 1045.19303,630.413737 L1025.00209,615.045429 L1053.00201,595.347851 L1053.00201,637.229948 C1052.9981,639.324448 1051.29112,641.022532 1049.18172,641.026412 L1049.17272,641.026116 Z M1051.60242,590.233803 L1044.80163,595.017287 L1044.80163,584.506474 L1051.60242,590.233803 Z M986.692576,557.985125 L1037.80944,557.985125 C1038.34069,557.985125 1038.84854,558.194964 1039.22354,558.568005 C1039.59854,558.941046 1039.80948,559.446204 1039.80948,559.974719 L1039.80948,598.510386 L1012.25055,617.920473 L984.699621,598.510386 L984.699621,559.962782 C984.707441,558.870815 985.594149,557.988746 986.691816,557.984867 L986.692576,557.985125 Z M979.692594,595.020669 L972.614513,590.046785 L979.692594,584.078123 L979.692594,595.020669 Z M1012.00151,605.147498 L1012.64213,605.147498 C1014.02102,605.147498 1015.14212,604.032254 1015.14212,602.660556 C1015.14212,601.284978 1014.02102,600.173614 1012.64213,600.173614 L1012.00151,600.173614 C1007.77492,600.173614 1003.72033,598.502687 1000.73154,595.526115 C997.739347,592.553424 996.059652,588.519902 996.059652,584.31498 C996.059652,580.110456 997.739347,576.077033 1000.73154,573.10086 C1003.71983,570.128168 1007.77452,568.457241 1012.00151,568.457241 C1016.2285,568.457241 1020.28269,570.128168 1023.27148,573.10086 C1026.26367,576.077431 1027.94337,580.110953 1027.94337,584.31498 L1027.94337,588.56218 C1027.85353,590.027188 1026.63477,591.16959 1025.15818,591.16959 C1023.68158,591.16959 1022.45898,590.027188 1022.37298,588.56218 L1022.37298,584.31498 C1022.40423,579.4926 1019.07999,575.288175 1014.3613,574.177208 C1009.64252,573.069723 1004.77933,575.350747 1002.63833,579.679518 C1000.50164,584.00839 1001.65006,589.230968 1005.41173,592.273394 C1009.17342,595.316019 1014.5484,595.370433 1018.37269,592.401631 C1020.10709,595.487031 1023.72038,597.010233 1027.15387,596.104887 C1030.58746,595.19948 1032.97026,592.094742 1032.94296,588.562488 L1032.94296,584.315288 C1032.94296,578.789601 1030.73596,573.49311 1026.81017,569.583637 C1022.88048,565.678342 1017.5563,563.482869 1012.00121,563.482869 C1006.44612,563.482869 1001.12224,565.678342 997.192249,569.583637 C993.266459,573.492812 991.059465,578.789203 991.059465,584.315288 C991.059465,589.840975 993.266459,595.137466 997.192249,599.04296 C1001.12194,602.952135 1006.44612,605.147608 1012.00121,605.147608 L1012.00151,605.147498 Z M1012.00151,589.658822 C1009.82962,589.658822 1007.87262,588.357057 1007.04062,586.359744 C1006.2086,584.362431 1006.66953,582.065889 1008.20472,580.538707 C1009.73991,579.011526 1012.04851,578.553033 1014.0563,579.380687 C1016.0641,580.208372 1017.3727,582.15522 1017.3727,584.315676 C1017.3727,587.264991 1014.9665,589.658722 1012.00161,589.658722 L1012.00151,589.658822 Z" id="contact_mail_icon"></path>
            </g>
        </g>
    </g>
</svg>