<svg version="1.1" id="Ebene_1" xmlns="http://www.w3.org/2000/svg" xmlns:xlink="http://www.w3.org/1999/xlink" x="0px" y="0px" viewBox="0 0 400 180" style="enable-background:new 0 0 400 180;" xml:space="preserve">
<style type="text/css">
	.st0{fill:none;stroke:#000000;stroke-width:4;stroke-miterlimit:10;}
</style>
<title>belastbar</title>
<g>
	<path class="st0" d="M290.6,177.9c-1.5,0-3.1,0-4.6,0c-11.9-0.1-18.5-6.8-18.6-18.6c-0.1-7.2-0.1-14.3-0.1-21.5v-16
		c0-32.6,0-65.1,0-97.7c-0.1-3.2,0.2-6.3,1.1-9.4c2.3-7.2,8-11.4,15.6-11.7c5.1-0.2,10.3-0.2,15.5-0.1c11.9,0.3,18.5,7,18.5,18.8
		c0,15.5,0,30.9,0,46.3v42.6c0,15.7,0,31.4,0,47c0,13.6-6.3,20-19.8,20L290.6,177.9z"></path>
</g>
<g>
	<path class="st0" d="M106,177.9c-1.7,0-3.4,0-5.1,0c-12-0.1-18.6-6.7-18.6-18.6c0-25.7,0-51.4,0-77.1V40c0-6.3,0-12.5,0-18.8
		c0.2-10.9,6.8-17.6,17.5-18c4.8-0.2,9.7-0.1,14.5,0c12,0.3,18.7,7.2,18.7,19.2c0,16.2,0,32.4,0,48.5v87c0,13.4-6.5,20-19.9,20.1
		L106,177.9z"></path>
</g>
<g>
	<path d="M154,88h92v4h-92V88z"></path>
</g>
<g>
	<path class="st0" d="M54.6,23.9h-5.1h-5.1c-9.5,0-20.4,2-20.4,17c0,14.3,0,79.4,0,79.4c0,7.5,0,15.1,0,22.6c0,7.3,3.4,16,19.1,16
		h4.5h6.7c5.6,0,20.4,0,20.4-17v-62c0-13,0-26.1,0-39C74.7,23.9,60.1,23.9,54.6,23.9L54.6,23.9z"></path>
</g>
<g>
	<path class="st0" d="M376.1,40.7c0-16.8-14.6-16.9-20.1-16.9h-5.1h-5.1c-9.5,0-20.4,2-20.4,17v81.4c0,6.9,0,13.8,0,20.7
		c0,7.3,3.4,16,19,16h11.3c5.6,0,20.4,0,20.4-17L376.1,40.7L376.1,40.7z"></path>
</g>
<g>
	<path d="M0,88h24v4H0V88z"></path>
</g>
<g>
	<path d="M376,88h24v4h-24V88z"></path>
</g>
</svg>