<svg xmlns="http://www.w3.org/2000/svg" xmlns:xlink="http://www.w3.org/1999/xlink" width="145" height="23" viewBox="0 0 145 23">  <defs>    <path id="diconium_logo-a" d="M1.591,14.58834 C1.591,16.52548 1.8936,17.98119 2.4977,18.95444 C3.1028,19.92873 3.9259,20.41535 4.9671,20.41535 C6.5488,20.41535 8.3725,19.96096 10.4371,19.05218 L10.4371,9.17828 C8.4841,8.67814 6.6604,8.42754 4.9671,8.42754 C3.6275,8.42754 2.7074,9.03062 2.2055,10.23575 C1.7955,11.19964 1.591,12.6512 1.591,14.58834 Z M0.5863,18.62066 C0.3631,17.9448 0.2097,17.27725 0.1262,16.61802 C0.0417,15.96087 0,15.23717 0,14.449 C0,13.66084 0.0376,12.92882 0.1116,12.25192 C0.1867,11.57502 0.3307,10.88874 0.5446,10.19312 C0.7585,9.49853 1.0423,8.91937 1.3959,8.45562 C2.1951,7.38048 3.3865,6.84186 4.9671,6.84186 C5.6557,6.84186 6.5352,6.9448 7.6046,7.1486 C8.675,7.3524 9.6286,7.62066 10.4653,7.95443 L10.4653,0 L12,0 L12,21.83363 L10.9118,21.83363 L10.4371,20.19283 C10.0094,20.54533 9.205,20.93421 8.023,21.36053 C6.8419,21.78788 5.8414,22 5.0235,22 C4.2045,22 3.4982,21.84715 2.9024,21.54145 C2.3067,21.23575 1.8279,20.84167 1.4658,20.3592 C1.1028,19.87778 0.8096,19.29861 0.5863,18.62066 Z"/>    <path id="diconium_logo-b" d="M17.2105,7.74189 L18.7108,7.74189 L18.7108,23 L17.2105,23 L17.2105,7.74189 Z M17,5.21303 L17,3.60375 C17,3.20089 17.1761,3 17.5263,3 L18.5002,3 C18.8338,3 19,3.20089 19,3.60375 L19,5.21303 C19,5.59654 18.8338,5.78777 18.5002,5.78777 L17.5263,5.78777 C17.3168,5.78777 17.1761,5.72117 17.1053,5.58581 C17.0354,5.4526 17,5.32797 17,5.21303 Z"/>    <path id="diconium_logo-c" d="M24,14.48601 C24,13.2297 24.0822,12.14754 24.2478,11.24262 C24.4123,10.33667 24.623,9.61108 24.8801,9.06586 C25.1361,8.52063 25.4805,8.09149 25.9113,7.77638 C26.3421,7.46231 26.778,7.25395 27.2181,7.15238 C27.6581,7.05079 28.1896,7 28.8127,7 C30.3898,7 32.3875,7.24048 34.8077,7.72041 L34.8077,8.83056 C32.443,8.66366 30.7744,8.58075 29.8028,8.58075 C28.8312,8.58075 28.2349,8.59422 28.0149,8.62221 C27.7948,8.65019 27.5656,8.71447 27.3281,8.81604 C27.0895,8.91763 26.888,9.05134 26.7225,9.21823 C26.557,9.38409 26.3966,9.61627 26.2413,9.91168 C26.0851,10.20711 25.9617,10.56783 25.8702,10.99282 C25.6676,11.91742 25.5679,13.13226 25.5679,14.63838 C25.5679,16.14553 25.6954,17.33239 25.9524,18.20206 C26.2095,19.07069 26.5621,19.65738 27.0114,19.96213 C27.4607,20.26688 28.0611,20.41925 28.8127,20.41925 C30.3158,20.41925 32.0482,20.31871 34.0099,20.1145 L35,20.03158 L35,21.19563 C33.2223,21.69525 31.1599,21.96268 28.8127,22 C26.888,22 25.5854,21.30654 24.9078,19.92067 C24.3023,18.7193 24,16.9074 24,14.48601 Z"/>    <path id="diconium_logo-d" d="M40.1711,10.59063 C39.9726,11.04361 39.8305,11.60749 39.7456,12.28229 C39.6607,12.95709 39.6172,13.69201 39.6172,14.48601 C39.6172,15.28105 39.6416,15.93719 39.6883,16.45443 C39.736,16.9727 39.8167,17.42568 39.9302,17.81335 C40.0437,18.20102 40.1711,18.53376 40.3133,18.81155 C40.4555,19.08831 40.639,19.32465 40.8661,19.51848 C41.0932,19.71232 41.3203,19.86988 41.5474,19.99012 C41.7745,20.11036 42.0588,20.19743 42.3995,20.2534 C42.9672,20.36431 43.6049,20.41925 44.3148,20.41925 C45.0247,20.41925 45.5829,20.39645 45.9904,20.3498 C46.3968,20.30419 46.7989,20.21194 47.1958,20.07304 C47.5937,19.93414 47.9153,19.73616 48.1615,19.47702 C48.4066,19.21788 48.6252,18.87582 48.8141,18.45083 C49.1918,17.67445 49.3818,16.62546 49.3818,15.30385 C49.3818,13.98224 49.3393,12.99337 49.2544,12.33723 C49.1685,11.68108 49.0316,11.12653 48.8427,10.67355 C48.6528,10.22058 48.4395,9.85571 48.2039,9.57791 C47.9662,9.30115 47.6457,9.08866 47.2383,8.94044 C46.8319,8.79324 46.4244,8.69581 46.0179,8.65019 C45.6105,8.60355 45.1001,8.58075 44.4857,8.58075 C43.8702,8.58075 43.3683,8.5994 42.981,8.63568 C42.5926,8.67299 42.1957,8.76111 41.7893,8.89898 C41.3818,9.03787 41.0603,9.24206 40.8237,9.50951 C40.5871,9.77693 40.3695,10.13765 40.1711,10.59063 Z M39.3476,20.32285 C38.8468,19.72165 38.4966,18.9774 38.2982,18.09011 C38.0987,17.20282 38,15.91438 38,14.22272 C38,12.53106 38.2122,11.13067 38.6388,10.02156 C39.0643,8.91348 39.736,8.13193 40.6539,7.67895 C41.5707,7.22701 42.8536,7 44.4995,7 C46.9592,7 48.6581,7.56803 49.594,8.70514 C50.531,9.84224 51,11.81066 51,14.61039 C51,17.41117 50.531,19.34227 49.594,20.40578 C48.6581,21.46928 46.9592,22 44.4995,22 C43.2123,22 42.1575,21.87043 41.3341,21.61129 C40.5117,21.35319 39.8496,20.92302 39.3476,20.32285 Z"/>    <path id="diconium_logo-e" d="M57.3962,7.98553 C57.867,7.75394 58.4669,7.5317 59.1938,7.31881 C59.9196,7.10593 60.7025,7 61.5426,7 C62.3816,7 63.1603,7.22119 63.8776,7.66567 C65.2922,8.55462 66,9.90675 66,11.72204 L66,22 L64.3865,22 L64.3865,11.72204 C64.3865,10.75935 64.1083,9.99502 63.5518,9.43008 C62.9942,8.86513 62.3012,8.58266 61.4717,8.58266 C60.6412,8.58266 59.9058,8.65225 59.2636,8.7914 C58.6225,8.92952 58.066,9.09671 57.5941,9.29091 C57.1222,9.48616 56.462,9.78627 55.6135,10.19337 L55.6135,22 L54,22 L54,7.24923 L55.1035,7.24923 L55.6135,8.9721 C56.3298,8.54527 56.9244,8.21711 57.3962,7.98553 Z"/>    <path id="diconium_logo-f" d="M71.2105,7.74189 L72.7098,7.74189 L72.7098,23 L71.2105,23 L71.2105,7.74189 Z M71,5.21303 L71,3.60375 C71,3.20089 71.1751,3 71.5263,3 L72.5002,3 C72.8328,3 73,3.20089 73,3.60375 L73,5.21303 C73,5.59654 72.8328,5.78777 72.5002,5.78777 L71.5263,5.78777 C71.3158,5.78777 71.1751,5.72117 71.1053,5.58581 C71.0354,5.4526 71,5.32797 71,5.21303 Z"/>    <path id="diconium_logo-g" d="M79.6135,7 L79.6135,17.27797 C79.6135,18.24065 79.8917,19.00499 80.4482,19.56992 C81.0048,20.13487 81.7358,20.4163 82.6415,20.4163 C83.7736,20.4163 84.6697,20.30622 85.3299,20.08398 C86.2356,19.76932 87.2545,19.33315 88.3865,18.77755 L88.3865,7 L90,7 L90,21.75076 L88.8954,21.75076 L88.3865,20.0279 C87.6692,20.43603 87.0746,20.76004 86.6038,20.99993 C85.3014,21.66664 83.9577,22 82.5706,22 C81.1846,22 80.0748,21.53787 79.2453,20.61153 C78.4147,19.6852 78,18.57401 78,17.27797 L78,7 L79.6135,7 Z"/>    <path id="diconium_logo-h" d="M98.3308,7.97561 C98.7598,7.75255 99.3291,7.53471 100.0385,7.32103 C100.748,7.10736 101.5077,7 102.3197,7 C103.1318,7 103.9009,7.20013 104.6292,7.59934 C105.3565,7.99959 105.8881,8.53325 106.224,9.20242 C107.0077,8.57077 107.9547,8.04544 109.065,7.62748 C110.1753,7.20951 111.3462,7 112.5779,7 C113.8095,7 114.8549,7.45133 115.713,8.35189 C116.571,9.25349 117,10.39274 117,11.76757 L117,22 L115.4043,22 L115.4043,11.76757 C115.4043,10.83886 115.129,10.07588 114.5797,9.48177 C114.0282,8.8866 113.3428,8.58953 112.5224,8.58953 C111.701,8.58953 110.9643,8.65417 110.3113,8.78445 C109.1163,9.00751 107.8846,9.50886 106.6164,10.28956 C106.7095,10.53138 106.7566,11.00563 106.7566,11.71232 L106.7566,22 L105.1608,22 L105.1608,11.76757 C105.1608,10.83886 104.8804,10.07588 104.3205,9.48177 C103.7607,8.8866 103.0753,8.58953 102.2643,8.58953 C101.4512,8.58953 100.7375,8.65833 100.1223,8.798 C99.5059,8.93768 98.9743,9.10027 98.5275,9.2858 C98.0786,9.47239 97.435,9.77882 96.5958,10.20618 L96.5958,22 L95,22 L95,7.19492 L96.0914,7.19492 L96.5958,8.95122 C97.3231,8.52492 97.9007,8.19867 98.3308,7.97561 Z"/>    <path id="diconium_logo-i" d="M8.76433,0 C7.70518,0 6.80937,0.70549 6.49183,1.68151 L0,21.64518 C0.36117,21.86889 0.7832,22 1.23567,22 C2.29482,22 3.19164,21.29556 3.50817,20.3185 L10,0.35483 C9.63883,0.13111 9.2168,0 8.76433,0 Z"/>    <path id="diconium_logo-j" d="M15.4925,1.68151 L9,21.64518 C9.36019,21.86889 9.78226,22 10.2348,22 C11.294,22 12.191,21.29556 12.5075,20.3185 L19,0.35483 C18.6388,0.13111 18.2167,0 17.7642,0 C16.706,0 15.8091,0.70549 15.4925,1.68151 Z"/>  </defs>  <g fill="none" fill-rule="evenodd">    <g transform="translate(28)">      <use fill="#FFF" xlink:href="#diconium_logo-a"/>      <use fill="#FFF" xlink:href="#diconium_logo-b"/>      <use fill="#FFF" xlink:href="#diconium_logo-c"/>      <use fill="#FFF" xlink:href="#diconium_logo-d"/>      <use fill="#FFF" xlink:href="#diconium_logo-e"/>      <use fill="#FFF" xlink:href="#diconium_logo-f"/>      <use fill="#FFF" xlink:href="#diconium_logo-g"/>      <use fill="#FFF" xlink:href="#diconium_logo-h"/>    </g>    <use fill="#FF5600" xlink:href="#diconium_logo-i"/>    <use fill="#FF5600" xlink:href="#diconium_logo-j"/>  </g></svg>