<svg id="a_1" data-name="Ebene 1" xmlns="http://www.w3.org/2000/svg" width="209.96" height="172" viewBox="0 0 209.96 172">
                      <title>Unbenannt-1</title>
                      <polyline class="animatesvg" points="162.78 38.44 170.81 34.22 173.81 38.69 168.77 42.07"></polyline>
                      <path class="animatesvg animatesvg__1" d="M1,90.52A85,85,0,0,0,170.86,84C169.8,38.86,133,2.09,87.93,1,51.1.16,14.59,21.22,6.77,54.86,3,71.09,2.75,103.79,45.2,109.3c26.7,3.48,53.94-5.23,83.46-23.82" transform="translate(0 0)"></path>
                      <polyline class="animatesvg" points="160.98 55.3 141.46 30.06 146.82 26.24 173.44 46.59"></polyline>
                      <path class="animatesvg" d="M181.06,58.27,209,38.19l-.17-8.34s-9.65-.18-12.64.88c-17.71,6.25-61.58,43-61.58,43l-9.77-4.19-5.16,2.66,16.46,24.16,5.27-2.77-2.19-15.15-7,4.76" transform="translate(0 0)"></path>
                      <polyline class="animatesvg" points="140.17 81.88 150.88 77.16 168.71 66.75"></polyline>
                      <polyline class="animatesvg" points="183.88 68.49 191.24 64.58 194.24 69.05 186.58 74.19"></polyline>
                      <polyline class="animatesvg" points="171.58 57.89 178.58 53.13 193.5 96.39 188.13 100.21 167.24 64.58"></polyline>
</svg>